# AST/ASF file generated using VICON BodyLanguage
# -----------------------------------------------
:version 1.10
:name VICON
:units
  mass 1.0
  length 0.45
  angle deg
:documentation
   .ast/.asf automatically generated from VICON data using
   VICON BodyBuilder and BodyLanguage model FoxedUp or BRILLIANT.MOD
:root
   order TX TY TZ RX RY RZ
   axis XYZ
   position 0 0 0  
   orientation 0 0 0 
:bonedata
  begin
     id 1 
     name lhipjoint
     direction 0.692814 -0.645514 0.321437 
     length 2.38754 
     axis 0 0 0  XYZ
  end
  begin
     id 2 
     name lfemur
     direction 0.34202 -0.939693 0  
     length 6.41921  
     axis 0 0 20  XYZ
    dof rx ry rz
    limits (-160.0 20.0)
           (-70.0 70.0)
           (-60.0 70.0)
  end
  begin
     id 3 
     name ltibia
     direction 0.34202 -0.939693 0   
     length 6.98247   
     axis 0 0 20   XYZ
    dof rx
    limits (-10.0 170.0)
  end
  begin
     id 4 
     name lfoot
     direction 0.0947186 -0.260237 0.960888   
     length 1.83034   
     axis -90 7.62852e-016 20   XYZ
    dof rx rz
    limits (-45.0 90.0)
           (-70.0 20.0)
  end
  begin
     id 5 
     name ltoes
     direction 1.53538e-011 -4.21952e-011 1   
     length 0.920499   
     axis -90 7.62852e-016 20   XYZ
    dof rx
    limits (-90.0 20.0)
  end
  begin
     id 6 
     name rhipjoint
     direction -0.631686 -0.693949 0.345555   
     length 2.2209  
     axis 0 0 0  XYZ 
  end
  begin
     id 7 
     name rfemur
     direction -0.34202 -0.939693 0   
     length 6.49542   
     axis 0 0 -20   XYZ
    dof rx ry rz
    limits (-160.0 20.0)
           (-70.0 70.0)
           (-70.0 60.0)
  end
  begin
     id 8 
     name rtibia
     direction -0.34202 -0.939693 0   
     length 7.21712   
     axis 0 0 -20   XYZ
    dof rx
    limits (-10.0 170.0)
 end
 begin
     id 9 
     name rfoot
     direction -0.0825378 -0.226771 0.970444   
     length 1.89724  
     axis -90 -7.62852e-016 -20   XYZ
    dof rx rz
    limits (-45.0 90.0)
           (-20.0 70.0)
  end
  begin
     id 10 
     name rtoes
     direction -1.53515e-011 -4.22016e-011 1   
     length 0.955868   
     axis -90 -7.62852e-016 -20   XYZ
    dof rx
    limits (-90.0 20.0)
  end
  begin
     id 11 
     name lowerback
     direction -0.0104711 0.984802 -0.173368   
     length 1.84931   
     axis 0 0 0   XYZ
    dof rx ry rz
    limits (-20.0 45.0)
           (-30.0 30.0)
           (-30.0 30.0)
  end
  begin
     id 12 
     name upperback
     direction -0.00286433 0.999996 -0.000382853   
     length 1.85768   
     axis 0 0 0   XYZ
    dof rx ry rz
    limits (-20.0 45.0)
           (-30.0 30.0)
           (-30.0 30.0)
  end
  begin
     id 13 
     name thorax
     direction 0.00167534 0.996793 0.0800069   
     length 1.92   
     axis 0 0 0   XYZ
    dof rx ry rz
    limits (-20.0 45.0)
           (-30.0 30.0)
           (-30.0 30.0)
  end
  begin
     id 14 
     name lowerneck
     direction -0.0672491 0.995415 0.068018   
     length 1.58923   
     axis 0 0 0   XYZ
    dof rx ry rz
    limits (-20.0 45.0)
           (-30.0 30.0)
           (-30.0 30.0)
  end
  begin
     id 15 
     name upperneck
     direction 0.0958019 0.982476 -0.159884   
     length 1.60189   
     axis 0 0 0   XYZ
    dof rx ry rz
    limits (-20.0 45.0)
           (-30.0 30.0)
           (-30.0 30.0)
  end
  begin
     id 16
     name head
     direction 0.032989 0.997338 -0.0650226  
     length 1.61681  
     axis 0 0 0   XYZ
    dof rx ry rz
    limits (-20.0 45.0)
           (-30.0 30.0)
           (-30.0 30.0)
  end
  begin
     id 17 
     name lclavicle
     direction 0.954279 0.298875 -0.00496069  
     length 2.99449  
     axis 0 0 0   XYZ
    dof ry rz
    limits (-20.0 10.0)
           (0.0 20.0)
  end
  begin
     id 18 
     name lhumerus
     direction 1 -4.48985e-011 -4.2057e-027   
     length 4.79185   
     axis 180 -30 -90   XYZ
    dof rx ry rz
    limits (-60.0 90.0)
           (-90.0 90.0)
           (-90.0 90.0)
  end
  begin
     id 19
     name lradius
     direction 1 -4.48945e-011 1.15441e-028   
     length 2.65553   
     axis 180 -30 -90   XYZ
    dof rx
    limits (-10.0 170.0)
  end
  begin
     id 20
     name lwrist
     direction 1 -4.4899e-011 4.8894e-028   
     length 1.32777   
     axis -2.56392e-016 90 90   XYZ
    dof ry
    limits (-180.0 0.0)
 end
  begin
     id 21 
     name lhand
     direction 1 -4.48908e-011 9.7788e-028   
     length 0.743904   
     axis -6.23971e-016 90 90   XYZ
    dof rx rz
    limits (-90.0 90.0)
           (-45.0 45.0)
  end
  begin
     id 22 
     name lfingers
     direction 1 -4.49068e-011 1.95576e-027   
     length 0.599754   
     axis -1.24794e-015 90 90   XYZ
    dof rx
    limits (0.0 90.0)
  end
  begin
     id 23
     name lthumb
     direction 0.707107 -6.34883e-011 0.707107   
     length 0.861131   
     axis -90 45 2.85299e-015   XYZ
    dof rx rz
    limits (-45.0 45.0)
           (-45.0 45.0)
  end
  begin
     id 24 
     name rclavicle
     direction -0.957921 0.286916 0.00811568   
     length 3.06817  
     axis 0 0 0   XYZ 
    dof ry rz
    limits (-10.0 20.0)
           (-20.0 0.0)
  end
  begin
     id 25 
     name rhumerus
     direction -1 -4.48971e-011 -3.07942e-027  
     length 4.77254   
     axis 180 30 90   XYZ
    dof rx ry rz
    limits (-90.0 60.0)
           (-90.0 90.0)
           (-90.0 90.0)
  end
  begin
     id 26 
     name rradius
     direction -1 -4.48957e-011 -9.6815e-028   
     length 2.75995   
     axis 180 30 90   XYZ
    dof rx
    limits (-10.0 170.0)
  end
  begin
     id 27 
     name rwrist
     direction -1 -4.48979e-011 4.8894e-028   
     length 1.37997   
     axis -2.56392e-016 -90 -90   XYZ
    dof ry
    limits (-180.0 0.0)
  end
  begin
     id 28
     name rhand
     direction -1 -4.48906e-011 9.7788e-028   
     length 0.701619   
     axis -6.23971e-016 -90 -90   XYZ
    dof rx rz
    limits (-90.0 90.0)
           (-45.0 45.0)
  end
  begin
     id 29
     name rfingers
     direction -1 -4.49018e-011 1.95576e-027   
     length 0.565663   
     axis -1.24794e-015 -90 -90   XYZ
    dof rx
    limits (0.0 90.0)
  end
  begin
     id 30
     name rthumb
     direction -0.707107 -6.34881e-011 0.707107   
     length 0.812183   
     axis -90 -45 -2.85299e-015   XYZ
    dof rx rz
    limits (-45.0 45.0)
           (-45.0 45.0)
  end
:hierarchy
  begin
    root lhipjoint rhipjoint lowerback
    lhipjoint lfemur
    lfemur ltibia
    ltibia lfoot
    lfoot ltoes
    rhipjoint rfemur
    rfemur rtibia
    rtibia rfoot
    rfoot rtoes
    lowerback upperback
    upperback thorax
    thorax lowerneck lclavicle rclavicle
    lowerneck upperneck
    upperneck head
    lclavicle lhumerus
    lhumerus lradius
    lradius lwrist
    lwrist lhand lthumb
    lhand lfingers
    rclavicle rhumerus
    rhumerus rradius
    rradius rwrist
    rwrist rhand rthumb
    rhand rfingers
  end

#!OML:ASF F:\VICON\USERDATA\INSTALL\rory3\rory3.ASF
:FULLY-SPECIFIED
:DEGREES
1134
root 0.50794 15.6037 -1.78404 12.3785 9.11764 -8.90776
lowerback 28.8227 0.421065 -9.14785
upperback 10.1518 -2.39293 -8.36989
thorax -4.39468 -1.10168 -3.32843
lowerneck -4.16936 -13.0164 -19.4429
upperneck 12.8737 -17.5509 12.8626
head 7.51958 -8.70461 5.50985
rclavicle 8.90555e-014 1.59028e-014
rhumerus -78.1024 32.2446 -94.4015
rradius 110.027
rwrist 12.4378
rhand 26.4913 18.2569
rfingers 7.12502
rthumb 50.5266 -2.68484
lclavicle 8.90555e-014 1.59028e-014
lhumerus 33.9103 -13.8603 46.9984
lradius 95.0312
lwrist -7.53101
lhand 8.03351 25.3511
lfingers 7.12502
lthumb 33.2589 52.2964
rfemur -32.1182 7.00357 22.2186
rtibia 35.9701
rfoot -12.7905 -15.6976
rtoes -13.1038
lfemur -40.5847 -6.41731 -4.8054
ltibia 42.9362
lfoot -10.8724 -2.76169
ltoes -11.6101
1135
root 0.512788 15.6057 -1.78662 12.2097 8.75058 -8.92289
lowerback 28.7909 0.428535 -9.31708
upperback 10.1925 -2.43273 -8.51884
thorax -4.32969 -1.12417 -3.38946
lowerneck -4.4259 -12.9952 -19.2388
upperneck 13.3336 -17.5226 12.7825
head 7.68222 -8.67785 5.4401
rclavicle -2.8625e-014 -2.54444e-014
rhumerus -75.8488 32.9902 -92.4901
rradius 110.646
rwrist 11.2225
rhand 27.0262 18.135
rfingers 7.12502
rthumb 51.0146 -2.53825
lclavicle -2.8625e-014 -2.54444e-014
lhumerus 33.8682 -13.4129 47.1329
lradius 94.9764
lwrist -7.7794
lhand 8.78349 25.207
lfingers 7.12502
lthumb 33.9716 51.9971
rfemur -31.9109 7.08753 22.2201
rtibia 35.861
rfoot -12.7246 -15.455
rtoes -12.9606
lfemur -40.2924 -6.3206 -4.86108
ltibia 42.986
lfoot -10.9663 -2.53565
ltoes -11.7579
1136
root 0.518186 15.6073 -1.79033 12.0651 8.2781 -8.94365
lowerback 28.757 0.483491 -9.48578
upperback 10.1816 -2.42271 -8.68582
thorax -4.32321 -1.12106 -3.48731
lowerneck -4.57221 -12.9625 -19.0762
upperneck 13.6951 -17.4974 12.7598
head 7.80418 -8.6554 5.40263
rclavicle -3.18055e-015 -5.08889e-014
rhumerus -73.3151 33.7158 -90.632
rradius 111.179
rwrist 10.136
rhand 26.5183 17.9453
rfingers 7.12502
rthumb 50.5513 -2.98313
lclavicle -3.18055e-015 -5.08889e-014
lhumerus 33.7753 -13.032 47.3021
lradius 94.9737
lwrist -8.09141
lhand 9.26796 25.3588
lfingers 7.12502
lthumb 34.4317 52.0456
rfemur -31.7128 7.25166 22.2181
rtibia 35.7147
rfoot -12.5732 -15.2619
rtoes -13.3619
lfemur -39.9969 -6.12554 -4.92635
ltibia 43.0352
lfoot -11.1121 -2.33954
ltoes -11.6752
1137
root 0.524002 15.6078 -1.79602 11.9283 7.838 -9.09805
lowerback 28.7963 0.552373 -9.47508
upperback 10.1436 -2.36081 -8.80771
thorax -4.39088 -1.08951 -3.65195
lowerneck -4.70645 -12.999 -19.04
upperneck 13.9873 -17.5818 12.8987
head 7.94805 -8.68216 5.41967
rclavicle 4.13472e-014 8.5875e-014
rhumerus -70.3972 34.2554 -88.6176
rradius 111.683
rwrist 9.64935
rhand 25.7387 18.042
rfingers 7.12502
rthumb 49.8385 -3.26507
lclavicle 4.13472e-014 8.5875e-014
lhumerus 33.7514 -12.832 47.2535
lradius 94.8764
lwrist -8.24494
lhand 9.16209 25.5425
lfingers 7.12502
lthumb 34.3312 52.2521
rfemur -31.5329 7.43956 22.3523
rtibia 35.5558
rfoot -12.4612 -15.0092
rtoes -13.6345
lfemur -39.7532 -5.89055 -4.84587
ltibia 43.0755
lfoot -11.2499 -2.13695
ltoes -11.8401
1138
root 0.53286 15.6105 -1.80275 11.8468 7.46642 -9.09831
lowerback 28.8638 0.623607 -9.52838
upperback 10.0726 -2.32085 -8.93747
thorax -4.50578 -1.06678 -3.78355
lowerneck -4.65498 -13.0325 -19.0945
upperneck 14.1952 -17.689 13.099
head 8.05091 -8.72785 5.47871
rclavicle 6.99722e-014 1.17681e-013
rhumerus -67.3132 34.4776 -86.5732
rradius 112.229
rwrist 9.72124
rhand 25.2528 18.1543
rfingers 7.12502
rthumb 49.3932 -3.38129
lclavicle 6.99722e-014 1.17681e-013
lhumerus 33.7288 -12.7541 47.2755
lradius 94.796
lwrist -8.2821
lhand 9.05562 25.6178
lfingers 7.12502
lthumb 34.2301 52.3502
rfemur -31.3739 7.42502 22.3352
rtibia 35.3658
rfoot -12.3475 -14.6386
rtoes -13.7639
lfemur -39.5584 -5.81799 -4.90648
ltibia 43.1308
lfoot -11.3615 -1.90137
ltoes -12.1021
1139
root 0.541503 15.6118 -1.81051 11.8206 7.05176 -8.98545
lowerback 28.9629 0.733145 -9.73876
upperback 9.93065 -2.28792 -9.03993
thorax -4.70656 -1.04656 -3.79495
lowerneck -4.55615 -13.047 -19.1608
upperneck 14.3987 -17.741 13.1208
head 8.11863 -8.75901 5.49206
rclavicle 2.22639e-014 6.99722e-014
rhumerus -64.339 34.6905 -84.6909
rradius 112.81
rwrist 10.0073
rhand 24.2529 17.982
rfingers 7.12502
rthumb 48.4744 -4.00644
lclavicle 2.22639e-014 6.99722e-014
lhumerus 33.5995 -12.7252 47.479
lradius 94.7192
lwrist -8.2651
lhand 9.04845 25.6208
lfingers 7.12502
lthumb 34.2233 52.3547
rfemur -31.2678 7.44952 22.1785
rtibia 35.1491
rfoot -12.195 -14.316
rtoes -13.7081
lfemur -39.4006 -5.7676 -5.08271
ltibia 43.2052
lfoot -11.5277 -1.56739
ltoes -12.7287
1140
root 0.545369 15.61 -1.8172 11.6927 6.60824 -9.28349
lowerback 29.1234 0.882272 -9.64411
upperback 9.77464 -2.13 -9.01689
thorax -4.96445 -0.965455 -3.87666
lowerneck -4.48576 -13.0939 -19.2394
upperneck 14.5865 -17.8245 13.1153
head 8.19035 -8.80581 5.4908
rclavicle 3.18055e-015 -3.18055e-015
rhumerus -61.3328 34.8557 -82.8885
rradius 113.315
rwrist 10.4524
rhand 23.3774 17.9024
rfingers 7.12502
rthumb 47.6674 -4.46408
lclavicle 3.18055e-015 -3.18055e-015
lhumerus 33.4565 -12.8078 47.7338
lradius 94.6069
lwrist -8.05803
lhand 8.50245 25.3766
lfingers 7.12502
lthumb 33.7046 52.2254
rfemur -31.0945 7.75272 22.4641
rtibia 34.922
rfoot -12.0141 -14.1745
rtoes -14.0274
lfemur -39.1927 -5.5435 -4.79101
ltibia 43.3122
lfoot -11.6854 -1.31653
ltoes -12.9763
1141
root 0.549078 15.6083 -1.82262 11.5448 6.23246 -9.63676
lowerback 29.2527 1.01697 -9.51899
upperback 9.6672 -1.96384 -8.93327
thorax -5.15091 -0.883688 -3.90937
lowerneck -4.34322 -13.1207 -19.3595
upperneck 14.5904 -17.8765 13.1325
head 8.18928 -8.84127 5.51364
rclavicle 3.18055e-015 6.36111e-015
rhumerus -58.2502 34.94 -81.1212
rradius 113.777
rwrist 10.7318
rhand 22.9959 17.8515
rfingers 7.12502
rthumb 47.3151 -4.6746
lclavicle 3.18055e-015 6.36111e-015
lhumerus 33.3044 -12.8548 48.0169
lradius 94.4477
lwrist -7.59766
lhand 7.74675 24.836
lfingers 7.12502
lthumb 32.9862 51.8391
rfemur -30.8834 7.97725 22.8327
rtibia 34.7023
rfoot -11.8242 -14.0015
rtoes -14.5159
lfemur -38.9801 -5.35551 -4.43679
ltibia 43.425
lfoot -11.8024 -1.16573
ltoes -12.9396
1142
root 0.553154 15.607 -1.82946 11.5318 5.9117 -9.78807
lowerback 29.2788 1.12127 -9.57146
upperback 9.57199 -1.86369 -8.85276
thorax -5.26633 -0.835925 -3.82251
lowerneck -4.38727 -13.1293 -19.4014
upperneck 14.6282 -17.8372 12.9257
head 8.18656 -8.83341 5.45337
rclavicle -5.40694e-014 -1.43125e-013
rhumerus -55.234 35.0354 -79.5643
rradius 114.082
rwrist 10.8025
rhand 22.5212 17.7473
rfingers 7.12502
rthumb 46.8761 -4.97331
lclavicle -5.40694e-014 -1.43125e-013
lhumerus 33.2016 -12.7556 48.3426
lradius 94.3462
lwrist -7.34679
lhand 7.53206 24.6483
lfingers 7.12502
lthumb 32.782 51.6943
rfemur -30.8129 8.09908 22.9624
rtibia 34.4859
rfoot -11.62 -13.7456
rtoes -14.6302
lfemur -38.919 -5.2406 -4.29552
ltibia 43.5246
lfoot -11.89 -0.974391
ltoes -12.9715
1143
root 0.558019 15.608 -1.83597 11.614 5.52862 -9.79697
lowerback 29.2293 1.28576 -9.7371
upperback 9.47033 -1.71058 -8.80215
thorax -5.34912 -0.763783 -3.72296
lowerneck -4.45323 -13.1705 -19.4583
upperneck 14.6914 -17.8348 12.7007
head 8.2024 -8.84373 5.38121
rclavicle 2.54444e-014 4.13472e-014
rhumerus -52.6898 35.0285 -78.4131
rradius 114.336
rwrist 10.9241
rhand 22.0278 17.7774
rfingers 7.12502
rthumb 46.4192 -5.14051
lclavicle 2.54444e-014 4.13472e-014
lhumerus 33.1954 -12.6765 48.7443
lradius 94.3747
lwrist -7.57388
lhand 8.11395 24.8538
lfingers 7.12502
lthumb 33.3354 51.7827
rfemur -30.8641 8.24457 22.9089
rtibia 34.3054
rfoot -11.4423 -13.5136
rtoes -14.5413
lfemur -38.9005 -5.12969 -4.30593
ltibia 43.5761
lfoot -12.0155 -0.649949
ltoes -13.4722
